<svg width="79" height="10" viewBox="0 0 79 10" fill="none" xmlns="http://www.w3.org/2000/svg">
<path d="M0.828125 0.28125H8.48582V0.969814H5.02479V9.54178H4.28915V0.969814H0.828125V0.28125Z" fill="#000"/>
<path d="M19.3518 5.1626H13.511V9.54178H12.7754V0.28125H13.511V4.47404H19.3518V0.28125H20.0874V9.53959H19.3518V5.1626Z" fill="#000"/>
<path d="M25.7266 0.28125H30.8982V0.969814H26.4622V4.50035H30.4993V5.18891H26.4622V8.85322H31.0333V9.54178H25.7266V0.28125Z" fill="#000"/>
<path d="M35.8027 0.28125H41.2159V2.26581H37.9409V4.22405H40.8148V6.2086H37.9409V9.54178H35.8027V0.28125Z" fill="#000"/>
<path d="M45.6289 0.28125H47.7671V7.55503H51.576V9.53959H45.6289V0.28125Z" fill="#000"/>
<path d="M55.5859 0.28125H61.132V2.26581H57.7242V3.89292H60.731V5.87748H57.7242V7.55722H61.265V9.54178H55.5859V0.28125Z" fill="#000"/>
<path d="M70.6344 4.81832L73.7476 9.53959H71.2349L69.2296 6.43009L67.251 9.53959H64.7383L67.8514 4.81832L64.889 0.28125H67.4016L69.3005 3.25699L71.1175 0.28125H73.6302L70.6344 4.81832Z" fill="#000"/>
<path d="M76.7242 3.03578C75.9266 3.03578 75.2773 2.39326 75.2773 1.60383C75.2773 0.814389 75.9266 0.171875 76.7242 0.171875C77.5219 0.171875 78.1711 0.814389 78.1711 1.60383C78.1711 2.39326 77.5219 3.03578 76.7242 3.03578ZM76.7242 0.391163C76.0484 0.391163 75.4989 0.934997 75.4989 1.60383C75.4989 2.27265 76.0484 2.81649 76.7242 2.81649C77.4 2.81649 77.9496 2.27265 77.9496 1.60383C77.9496 0.934997 77.4 0.391163 76.7242 0.391163Z" fill="#000"/>
<path d="M76.2676 2.24106V0.951651C76.3407 0.951651 76.6731 0.947266 76.7107 0.947266C77.0653 0.947266 77.1916 1.1227 77.1916 1.35953C77.1916 1.59855 77.0431 1.69723 76.9722 1.73232L77.3511 2.24106H76.9899L76.6731 1.78933H76.5623V2.24106H76.2676ZM76.5645 1.22795V1.51303H76.6731C76.7861 1.51303 76.8769 1.47356 76.8769 1.36391C76.8769 1.29155 76.8392 1.22357 76.6974 1.22357C76.6509 1.22357 76.6265 1.22576 76.5645 1.22795Z" fill="#000"/>
</svg>
